<?xml version="1.0" encoding="utf-8"?>
<!-- Generator: Adobe Illustrator 24.3.0, SVG Export Plug-In . SVG Version: 6.00 Build 0)  -->
<svg version="1.1" id="Layer_1" xmlns="http://www.w3.org/2000/svg" xmlns:xlink="http://www.w3.org/1999/xlink" x="0px" y="0px"
	 viewBox="0 0 566.93 566.93" style="enable-background:new 0 0 566.93 566.93;" xml:space="preserve">
<style type="text/css">
	.st0{stroke:#FFFFFF;stroke-width:3;}
	.st1{fill:#F15A24;stroke:#FFFFFF;stroke-width:3;stroke-miterlimit:10;}
</style>
<g>
	<path class="st0" d="M402.77,399.15h-46.79v-66.3c0-6.75-2.96-10.13-8.88-10.13c-5.84,0-8.76,3.38-8.76,10.13v66.3h-46.79v-65.47
		c0-15.31,5.38-28.2,16.14-38.68s23.94-15.72,39.53-15.72c17.85,0,32.15,6.09,42.91,18.25c8.42,9.5,12.63,22.73,12.63,39.68V399.15z
		"/>
</g>
<g>
	<path class="st0" d="M276.71,399.05h-46.79v-66.3c0-6.75-2.96-10.13-8.88-10.13c-5.84,0-8.76,3.38-8.76,10.13v66.3H165.5v-65.47
		c0-15.31,5.38-28.2,16.14-38.68c10.76-10.48,23.94-15.72,39.53-15.72c17.85,0,32.15,6.09,42.91,18.25
		c8.42,9.5,12.63,22.73,12.63,39.68V399.05z"/>
</g>
<g>
	<path class="st1" d="M222.16,163.61c16.24,0,30.16,6.03,41.78,18.08c11.62,12.05,17.43,26.47,17.43,43.26
		c0,17.08-5.85,31.58-17.55,43.52c-11.7,11.94-25.92,17.91-42.66,17.91c-16.63,0-30.82-6-42.58-17.99
		c-11.76-11.99-17.64-26.47-17.64-43.43c0-17.13,5.92-31.64,17.76-43.52C190.55,169.55,205.03,163.61,222.16,163.61z M221.16,198.05
		c-7,0-12.96,2.63-17.89,7.88c-4.93,5.26-7.39,11.59-7.39,19.02c0,7.42,2.48,13.76,7.43,19.02c4.95,5.25,10.9,7.88,17.85,7.88
		c7.05,0,13.03-2.61,17.93-7.84c4.9-5.23,7.35-11.58,7.35-19.06c0-7.48-2.45-13.84-7.35-19.06
		C234.19,200.67,228.21,198.05,221.16,198.05z"/>
</g>
<g>
	<path class="st1" d="M414.19,232.32h-68.07c-1.04-3.35-1.56-6.42-1.56-9.23c0-3.89,0.72-7.71,2.16-11.44h22.81
		c-1.6-8.64-6.6-12.96-15.01-12.96c-5.6,0-10.16,2.32-13.68,6.95c-3.52,4.63-5.28,10.57-5.28,17.81c0,7.55,1.7,13.66,5.1,18.33
		c3.4,4.67,7.86,7.01,13.38,7.01c4.48,0,8.8-2.18,12.96-6.54l25.57,29.89c-11.93,9.11-25.17,13.66-39.73,13.66
		c-17.77,0-32.69-5.8-44.78-17.4c-12.08-11.6-18.13-25.96-18.13-43.09c0-17.05,6.1-31.45,18.31-43.2
		c12.2-11.75,27.19-17.63,44.96-17.63c17.37,0,31.95,5.74,43.76,17.22c11.8,11.48,17.71,25.63,17.71,42.44
		C414.67,225.86,414.51,228.58,414.19,232.32z"/>
</g>
<g>
</g>
<g>
</g>
<g>
</g>
<g>
</g>
<g>
</g>
</svg>
