<?xml version="1.0" encoding="utf-8"?>
<!-- Generator: Adobe Illustrator 24.3.0, SVG Export Plug-In . SVG Version: 6.00 Build 0)  -->
<svg version="1.1" id="Layer_1" xmlns="http://www.w3.org/2000/svg" xmlns:xlink="http://www.w3.org/1999/xlink" x="0px" y="0px"
	 viewBox="0 0 708.38 425.2" style="enable-background:new 0 0 708.38 425.2;" xml:space="preserve">
<style type="text/css">
	.st0{stroke:#FFFFFF;stroke-width:3;}
	.st1{fill:#F15A24;stroke:#FFFFFF;stroke-width:3;stroke-miterlimit:10;}
	.st2{fill:#F15A24;stroke:#000000;stroke-width:3;stroke-miterlimit:10;}
</style>
<g>
	<path class="st0" d="M242.34,307.56h-36.59V254.1c0-5.44-2.31-8.17-6.94-8.17c-4.57,0-6.85,2.73-6.85,8.17v53.46h-36.59v-52.79
		c0-12.34,4.21-22.74,12.62-31.19s18.72-12.68,30.91-12.68c13.96,0,25.14,4.91,33.56,14.72c6.58,7.66,9.88,18.33,9.88,31.99
		L242.34,307.56L242.34,307.56z"/>
</g>
<g>
	<path class="st0" d="M143.76,307.48h-36.59v-53.46c0-5.44-2.31-8.17-6.94-8.17c-4.57,0-6.85,2.73-6.85,8.17v53.46H56.79v-52.79
		c0-12.34,4.21-22.74,12.62-31.19c8.41-8.45,18.72-12.68,30.91-12.68c13.96,0,25.14,4.91,33.56,14.72
		c6.58,7.66,9.88,18.33,9.88,31.99V307.48z"/>
</g>
<g>
	<path class="st1" d="M101.1,117.64c12.7,0,23.59,4.86,32.67,14.58s13.63,21.34,13.63,34.88c0,13.77-4.57,25.46-13.72,35.09
		c-9.15,9.63-20.27,14.44-33.36,14.44c-13.01,0-24.1-4.84-33.3-14.51c-9.2-9.67-13.8-21.34-13.8-35.02
		c0-13.81,4.63-25.51,13.89-35.09C76.38,122.43,87.71,117.64,101.1,117.64z M100.32,145.41c-5.47,0-10.14,2.12-13.99,6.35
		c-3.86,4.24-5.78,9.35-5.78,15.34c0,5.98,1.94,11.1,5.81,15.34c3.87,4.23,8.52,6.35,13.96,6.35c5.51,0,10.19-2.1,14.02-6.32
		c3.83-4.22,5.75-9.34,5.75-15.37s-1.92-11.16-5.75-15.37C110.51,147.52,105.83,145.41,100.32,145.41z"/>
</g>
<g>
	<path class="st1" d="M251.28,173.04h-53.23c-0.81-2.7-1.22-5.18-1.22-7.44c0-3.14,0.56-6.22,1.69-9.22h17.84
		c-1.25-6.97-5.16-10.45-11.74-10.45c-4.38,0-7.95,1.87-10.7,5.6c-2.75,3.73-4.13,8.52-4.13,14.36c0,6.09,1.33,11.01,3.99,14.78
		c2.66,3.77,6.15,5.65,10.46,5.65c3.5,0,6.88-1.76,10.14-5.27l20,24.1c-9.33,7.35-19.68,11.01-31.07,11.01
		c-13.9,0-25.56-4.68-35.02-14.03c-9.45-9.35-14.18-20.93-14.18-34.74c0-13.75,4.77-25.36,14.32-34.83
		c9.54-9.47,21.26-14.22,35.16-14.22c13.58,0,24.99,4.63,34.22,13.88c9.23,9.26,13.85,20.67,13.85,34.22
		C251.65,167.83,251.53,170.02,251.28,173.04z"/>
</g>
<g>
	<path class="st2" d="M279.14,303.97c0.54-6.6,0.96-12.54,1.27-17.82c0.31-5.28,0.58-11.41,0.81-18.38
		c0.23-6.97,0.4-14.33,0.51-22.06c0.11-7.74,0.17-13.89,0.17-18.47c3.53,0.11,6.38,0.17,8.55,0.17c2.26,0,5.01-0.08,8.25-0.25
		c3.24-0.17,6.4-0.25,9.48-0.25c3.61,0,6.83,0.19,9.65,0.56c2.12,0.26,4.04,0.81,5.78,1.63c1.74,0.83,3.19,1.83,4.38,3.01
		c1.19,1.18,2.17,2.5,2.96,3.96c0.79,1.46,1.4,3.18,1.84,5.14c0.44,1.97,0.66,4.08,0.66,6.32c0,2.51-0.24,4.86-0.72,7.05
		c-0.48,2.19-1.23,4.25-2.26,6.18c-1.03,1.93-2.33,3.6-3.89,5c-1.57,1.41-3.76,2.84-6.58,4.3l2.2,7.14
		c0.62,1.99,1.28,4.01,1.99,6.07l5.67,16.47c0.25,0.71,0.71,2.12,1.35,4.22c-4.65-0.07-7.78-0.11-9.39-0.11
		c-2.03,0-5.36,0.04-9.98,0.11c-0.45-1.95-1.27-5.57-2.46-10.85c-0.48-2.21-0.89-3.92-1.23-5.12c-0.68-2.66-1.68-6.39-3.01-11.19
		l-4.36-15.91c1.52,0.38,3.02,0.56,4.49,0.56c2.06,0,3.93-0.41,5.61-1.24s2.95-2.1,3.81-3.82c0.86-1.72,1.29-3.54,1.29-5.45
		c0-1.61-0.32-3.03-0.97-4.24c-0.65-1.22-1.67-2.13-3.07-2.73s-3.55-0.9-6.46-0.9c-0.99,0-2.01,0.03-3.07,0.08
		c-1.06,0.06-2.29,0.1-3.7,0.14c-0.36,7.68-0.68,17.05-0.96,28.11c-0.28,11.06-0.46,21.91-0.54,32.55c-4.72-0.07-7.78-0.11-9.2-0.11
		C286.36,303.86,283.41,303.89,279.14,303.97z"/>
	<path class="st2" d="M381.37,286.99c-0.37,2.25-1.07,7.68-2.12,16.3c-3.27,0.86-6.03,1.43-8.25,1.71
		c-2.23,0.28-4.49,0.42-6.77,0.42c-3.36,0-6.45-0.31-9.27-0.93c-2.82-0.62-5.26-1.71-7.3-3.29c-2.05-1.57-3.76-3.53-5.14-5.87
		c-1.38-2.34-2.43-5.12-3.15-8.34c-0.72-3.22-1.08-6.53-1.08-9.94c0-4.79,0.72-9.48,2.16-14.07s3.29-8.17,5.57-10.75
		c2.27-2.58,4.89-4.42,7.85-5.5c2.96-1.08,6-1.63,9.1-1.63c3.22,0,6.29,0.5,9.21,1.49c2.92,0.99,5.4,2.73,7.43,5.2
		c2.03,2.47,3.48,5.27,4.34,8.38c0.86,3.11,1.29,6.46,1.29,10.06c0,2.14-0.18,4.52-0.55,7.14L355,277.43
		c-0.03,0.6-0.04,1.14-0.04,1.62c0,4.03,1.09,7,3.26,8.9c2.17,1.9,4.83,2.85,7.96,2.85c1.86,0,3.99-0.29,6.37-0.87
		S377.87,288.38,381.37,286.99z M355.33,268.83h13.97c0.03-0.64,0.04-1.18,0.04-1.63c0-1.95-0.26-3.62-0.78-5
		c-0.52-1.39-1.27-2.4-2.24-3.04c-0.97-0.64-2.07-0.96-3.28-0.96c-0.85,0-1.67,0.18-2.46,0.53c-0.79,0.36-1.5,0.88-2.14,1.57
		s-1.16,1.49-1.59,2.39c-0.42,0.9-0.73,1.77-0.93,2.61C355.73,266.16,355.53,267.33,355.33,268.83z"/>
	<path class="st2" d="M394.15,310.94c3.64,1.65,6.84,2.8,9.61,3.46c2.76,0.66,5.18,0.98,7.24,0.98c1.5,0,2.85-0.22,4.06-0.65
		c1.21-0.43,2.19-0.96,2.92-1.6c0.73-0.64,1.36-1.44,1.88-2.42c0.52-0.98,0.92-2.06,1.21-3.26c0.28-1.2,0.48-2.59,0.59-4.16
		s0.21-3.75,0.3-6.52c-1.1,1.31-2.05,2.36-2.86,3.15c-0.8,0.79-1.8,1.55-2.98,2.28c-1.18,0.73-2.48,1.29-3.87,1.69
		c-1.4,0.39-2.87,0.59-4.42,0.59c-3.58,0-6.82-1.1-9.69-3.32c-2.88-2.21-5.02-5.3-6.43-9.28c-1.41-3.97-2.12-8.26-2.12-12.87
		c0-5.43,0.76-10.34,2.28-14.73s3.7-8.09,6.53-11.13c2.83-3.04,5.94-5.13,9.33-6.3c3.38-1.16,7.22-1.74,11.5-1.74
		c2.45,0,5.24,0.2,8.35,0.59c3.11,0.39,7.39,1.25,12.84,2.56l-1,18.55l-0.88,20.35c-0.06,1.46-0.08,2.66-0.08,3.6l-0.33,18.27
		c-0.06,2.32-0.27,4.53-0.63,6.63c-0.31,1.91-0.83,3.69-1.57,5.34c-0.73,1.65-1.64,3.09-2.71,4.33c-1.19,1.35-2.51,2.42-3.98,3.2
		c-1.5,0.82-3.26,1.5-5.29,2.02c-2.2,0.52-4.5,0.79-6.9,0.79c-1.35,0-3.02-0.08-4.99-0.25c-1.98-0.17-4-0.42-6.07-0.76
		c-2.07-0.34-3.87-0.69-5.38-1.07c-1.51-0.38-3.42-0.92-5.73-1.63l-0.3-7.42C394.54,318.79,394.4,315.7,394.15,310.94z
		 M423.18,262.31c-1.75-0.45-3.31-0.67-4.69-0.67c-2.53,0-4.72,0.65-6.57,1.94s-3.27,3.23-4.29,5.8c-1.01,2.57-1.52,5.25-1.52,8.03
		c0,2.03,0.27,3.91,0.8,5.63c0.53,1.73,1.42,3.09,2.66,4.08s2.55,1.49,3.93,1.49c2.03,0,3.83-0.98,5.4-2.93
		c1.58-1.95,2.66-4.62,3.25-8C422.76,274.31,423.1,269.19,423.18,262.31z"/>
	<path class="st2" d="M447.65,303.97c0.39-4.57,0.69-8.34,0.88-11.3c0.2-2.96,0.39-6.75,0.57-11.36c0.18-4.61,0.34-9.71,0.48-15.29
		c0.14-5.58,0.25-12.07,0.34-19.45c3.67,0.08,6.61,0.11,8.81,0.11c2,0,4.88-0.04,8.64-0.11c-0.49,7.08-0.83,13.3-1.05,18.66
		s-0.35,11.04-0.41,17.03c-0.11,10.64-0.17,17.88-0.17,21.7c-3.36-0.07-6.25-0.11-8.67-0.11
		C454.69,303.86,451.54,303.89,447.65,303.97z M450.32,239.38c0.17-4.46,0.25-7.98,0.25-10.57c0-0.75-0.01-1.76-0.04-3.04
		c3.41,0.08,6.28,0.11,8.59,0.11c3.19,0,5.98-0.04,8.38-0.11c-0.08,1.16-0.14,2.14-0.17,2.92l-0.25,6.97
		c-0.06,1.05-0.08,2.29-0.08,3.71c-2.79-0.08-5.47-0.11-8.04-0.11C456.3,239.26,453.42,239.3,450.32,239.38z"/>
	<path class="st2" d="M474.61,302.9c-0.11-1.65-0.23-3.38-0.34-5.2c-0.11-1.82-0.3-4.32-0.55-7.5l-0.34-4.05
		c2.73,1.42,5.08,2.48,7.05,3.18s3.79,1.04,5.45,1.04c1.38,0,2.5-0.17,3.36-0.51c0.86-0.34,1.49-0.82,1.88-1.46
		c0.39-0.64,0.59-1.29,0.59-1.97c0-0.6-0.15-1.19-0.44-1.77c-0.3-0.58-0.96-1.38-2.01-2.39c-2.31-2.25-4.34-4.29-6.1-6.13
		c-1.76-1.84-3.08-3.47-3.97-4.89c-0.89-1.42-1.56-2.96-2.03-4.61c-0.46-1.65-0.7-3.35-0.7-5.12c0-3.11,0.67-6.02,2.01-8.71
		c1.34-2.7,3.32-4.66,5.93-5.87c2.61-1.22,5.79-1.83,9.54-1.83c3.92,0,8.93,0.67,15.03,2.02l0.68,15.74c-3.41-1.8-6.7-2.7-9.86-2.7
		c-2.23,0-3.84,0.3-4.85,0.91c-1,0.61-1.5,1.54-1.5,2.8c0,0.41,0.06,0.81,0.17,1.18c0.11,0.38,0.32,0.77,0.61,1.18
		c0.3,0.41,0.66,0.83,1.1,1.26c0.44,0.43,1.5,1.43,3.2,3.01c1.69,1.57,3.02,2.87,3.98,3.88c1.58,1.65,2.79,3.18,3.62,4.58
		c0.83,1.41,1.47,2.9,1.91,4.5c0.44,1.59,0.66,3.27,0.66,5.03c0,2.66-0.49,5.11-1.46,7.34c-0.97,2.23-2.44,4.09-4.4,5.59
		s-4.08,2.54-6.37,3.12s-4.64,0.87-7.07,0.87c-1.64,0-3.69-0.19-6.16-0.56C480.76,304.49,477.89,303.84,474.61,302.9z"/>
	<path class="st2" d="M548.31,287.44c-0.51,3.15-0.95,6.22-1.31,9.22l-0.93,6.86c-2.79,0.82-4.97,1.35-6.54,1.57
		c-1.57,0.23-3.08,0.34-4.55,0.34c-2.4,0-4.53-0.27-6.39-0.82c-1.86-0.54-3.42-1.54-4.66-2.98c-1.24-1.44-2.09-3.1-2.54-4.97
		s-0.68-3.86-0.68-5.96c0-0.37,0.01-1.04,0.04-2c0.03-0.96,0.13-3.08,0.29-6.38l0.92-19.45h-6.59c0.14-2.59,0.27-6,0.38-10.23
		l0.13-5.23h7.01c0.17-1.72,0.38-5.49,0.63-11.3l7.25-1.97c1.33-0.34,4.15-1.2,8.48-2.59c-0.2,4.91-0.34,10.19-0.42,15.85h9.65
		c-0.23,7.8-0.34,12.95-0.34,15.46h-9.74l-0.51,14.05c-0.06,2.1-0.08,3.45-0.08,4.05c0,1.8,0.15,3.3,0.45,4.5
		c0.3,1.2,0.82,2.06,1.57,2.59s1.57,0.79,2.48,0.79c0.68,0,1.38-0.06,2.12-0.2C545.14,288.52,546.44,288.12,548.31,287.44z"/>
	<path class="st2" d="M595.63,286.99c-0.37,2.25-1.07,7.68-2.12,16.3c-3.27,0.86-6.03,1.43-8.25,1.71s-4.49,0.42-6.77,0.42
		c-3.36,0-6.45-0.31-9.27-0.93c-2.82-0.62-5.26-1.71-7.3-3.29s-3.76-3.53-5.14-5.87c-1.38-2.34-2.43-5.12-3.15-8.34
		s-1.08-6.53-1.08-9.94c0-4.79,0.72-9.48,2.16-14.07s3.29-8.17,5.57-10.75c2.27-2.58,4.89-4.42,7.85-5.5c2.96-1.08,6-1.63,9.1-1.63
		c3.22,0,6.29,0.5,9.21,1.49c2.92,0.99,5.4,2.73,7.43,5.2c2.03,2.47,3.48,5.27,4.34,8.38c0.86,3.11,1.29,6.46,1.29,10.06
		c0,2.14-0.18,4.52-0.55,7.14l-29.67,0.06c-0.03,0.6-0.04,1.14-0.04,1.62c0,4.03,1.09,7,3.26,8.9c2.17,1.9,4.83,2.85,7.96,2.85
		c1.86,0,3.99-0.29,6.37-0.87C589.19,289.36,592.13,288.38,595.63,286.99z M569.6,268.83h13.97c0.03-0.64,0.04-1.18,0.04-1.63
		c0-1.95-0.26-3.62-0.78-5c-0.52-1.39-1.27-2.4-2.24-3.04c-0.97-0.64-2.07-0.96-3.28-0.96c-0.85,0-1.67,0.18-2.46,0.53
		c-0.79,0.36-1.5,0.88-2.14,1.57s-1.16,1.49-1.59,2.39c-0.42,0.9-0.73,1.77-0.93,2.61C569.99,266.16,569.79,267.33,569.6,268.83z"/>
	<path class="st2" d="M604.98,303.97l1.31-24.96l0.42-14.33c0.03-2.59,0.04-5.23,0.04-7.93c0-2.74-0.03-6.13-0.08-10.17
		c3.42,0.08,6.12,0.11,8.13,0.11c2.34,0,5.04-0.04,8.09-0.11l-0.18,6.35c1.1-1.65,2-2.88,2.71-3.68c0.71-0.81,1.51-1.54,2.41-2.19
		c0.9-0.66,1.85-1.14,2.84-1.46c0.99-0.32,2.02-0.48,3.09-0.48c1.02,0,2.15,0.19,3.39,0.56c0.03,4.08,0.1,7.46,0.21,10.12l0.3,8.66
		c-1.55-0.6-3-0.9-4.36-0.9c-1.69,0-3.15,0.33-4.38,0.98c-1.23,0.66-2.31,1.65-3.26,2.98c-0.95,1.33-1.7,2.99-2.26,4.97
		c-0.56,1.99-0.96,5.14-1.18,9.44c-0.23,4.31-0.34,9.24-0.34,14.78c0,1.95,0.06,4.37,0.17,7.25c-2.74-0.07-5.49-0.11-8.26-0.11
		C611.06,303.86,608.12,303.89,604.98,303.97z"/>
</g>
<g>
</g>
<g>
</g>
<g>
</g>
<g>
</g>
<g>
</g>
</svg>
